# xmcd CD database file
#
# Track frame offsets:
#	150
#	16608
#	37524
#	50020
#	64986
#	91066
#	108067
#	125117
#	147709
#	158289
#	178958
#	194825
#
# Disc length: 2806 seconds
#
# Revision: 0
# Processed by: cddbd v1.4PL0 Copyright (c) Steve Scherf et al.
# Submitted via: CDex 1.50beta10
#
DISCID=9f0af40c
DTITLE=Los Blues - Handsome Cat
DYEAR=2000
DGENRE=Blues
TTITLE0=Handsome Cat
TTITLE1=Mind Your Own Business
TTITLE2=Walkin' Mama
TTITLE3=Highway Blues
TTITLE4=Something Inside
TTITLE5=The Stumble
TTITLE6=Sugar Sweet
TTITLE7=Next Teardrop
TTITLE8=La Cucaracha
TTITLE9=Done You Wrong
TTITLE10=Use Somebody Else
TTITLE11=Sad Hours
EXTD=YEAR: 2000
EXTT0=
EXTT1=
EXTT2=
EXTT3=
EXTT4=
EXTT5=
EXTT6=
EXTT7=
EXTT8=
EXTT9=
EXTT10=
EXTT11=
PLAYORDER=
